Coordinates
version=1
nRows=14
nColumns=24
inDegrees=yes

Units are S.I. units (second, meters, Newtons, ...)
Angles are in degrees.

endheader
time	pelvis_tilt	pelvis_list	pelvis_rotation	pelvis_tx	pelvis_ty	pelvis_tz	hip_flexion_r	hip_adduction_r	hip_rotation_r	knee_angle_r	ankle_angle_r	subtalar_angle_r	mtp_angle_r	hip_flexion_l	hip_adduction_l	hip_rotation_l	knee_angle_l	ankle_angle_l	subtalar_angle_l	mtp_angle_l	lumbar_extension	lumbar_bending	lumbar_rotation
     27.62000000	    -27.53951856	      0.82430096	     -3.31736190	      0.00092440	      0.55918617	      0.01382078	     96.84143106	     -7.71934461	     -4.33523444	   -104.96808141	     35.99122337	      3.67941637	      0.00000000	    100.41270363	    -11.73056724	     -0.19823250	   -103.03012719	     34.56954453	      3.75072479	      0.00000000	    -28.91004909	     -1.51625933	      0.79388496
     27.63000000	    -27.43691783	      0.77142761	     -3.32785818	      0.00120161	      0.56223709	      0.01428076	     96.35643110	     -7.58236052	     -4.38690319	   -104.47639143	     35.86886779	      3.58179912	      0.00000000	     99.92750253	    -11.69320602	     -0.13319482	   -102.54168905	     34.42411822	      3.70069861	      0.00000000	    -28.78703208	     -1.51726823	      0.78918670
     27.64000000	    -27.33707988	      0.69424281	     -3.32561534	      0.00152452	      0.56545562	      0.01468883	     95.83920540	     -7.45508389	     -4.45222213	   -103.94682928	     35.76895798	      3.47179908	      0.00000000	     99.42175930	    -11.63558648	     -0.05724742	   -102.01636497	     34.31808929	      3.61834201	      0.00000000	    -28.65345184	     -1.48211674	      0.75628214
     27.65000000	    -27.20700104	      0.63846111	     -3.33539616	      0.00183343	      0.56882694	      0.01505050	     95.28930996	     -7.32443767	     -4.50144016	   -103.39505840	     35.64513627	      3.38136804	      0.00000000	     98.86703836	    -11.57910610	     -0.00030069	   -101.47518366	     34.15928042	      3.57044264	      0.00000000	    -28.55191791	     -1.46680314	      0.77651719
     27.66000000	    -27.04367978	      0.56792938	     -3.33451548	      0.00219412	      0.57233622	      0.01538177	     94.68722965	     -7.20263617	     -4.55973200	   -102.83364504	     35.51424971	      3.28078512	      0.00000000	     98.26637041	    -11.50381602	      0.07374936	   -100.92407090	     34.02606770	      3.48940790	      0.00000000	    -28.46942516	     -1.42584283	      0.77054847
     27.67000000	    -26.88342205	      0.49282333	     -3.32483411	      0.00263219	      0.57622253	      0.01571493	     94.03935667	     -7.08333067	     -4.62349493	   -102.20207556	     35.37096381	      3.17992781	      0.00000000	     97.62258202	    -11.42566353	      0.13686203	   -100.30111889	     33.86782411	      3.39792346	      0.00000000	    -28.37446059	     -1.37815111	      0.86029267
     27.68000000	    -26.71856733	      0.42474343	     -3.29551471	      0.00305837	      0.58017566	      0.01607363	     93.38402022	     -6.97297566	     -4.68169998	   -101.56418412	     35.22223167	      3.05668220	      0.00000000	     96.95470934	    -11.32348359	      0.20507442	    -99.65069541	     33.69935583	      3.34505666	      0.00000000	    -28.28070505	     -1.33139512	      0.87659471
     27.69000000	    -26.53143975	      0.33505406	     -3.29033049	      0.00349017	      0.58406532	      0.01645326	     92.69711260	     -6.82566466	     -4.75347120	   -100.92485839	     35.09969722	      2.92072637	      0.00000000	     96.28266237	    -11.24150476	      0.29678153	    -99.03877603	     33.55661342	      3.24991215	      0.00000000	    -28.21289498	     -1.26933061	      0.89445803
     27.70000000	    -26.37069923	      0.25053986	     -3.26866941	      0.00400366	      0.58823789	      0.01681412	     92.00593200	     -6.70560641	     -4.83539254	   -100.23354176	     34.92082616	      2.79181733	      0.00000000	     95.59453543	    -11.14307309	      0.37835248	    -98.35565346	     33.38198184	      3.13081683	      0.00000000	    -28.08932576	     -1.18596947	      0.96240890
     27.71000000	    -26.20687542	      0.13372674	     -3.26251685	      0.00457436	      0.59255499	      0.01716419	     91.27763299	     -6.58638799	     -4.96452907	    -99.50347370	     34.79403395	      2.69109129	      0.00000000	     94.89246032	    -11.05462066	      0.49903395	    -97.66217156	     33.21201204	      3.03136705	      0.00000000	    -28.00292000	     -1.08793634	      0.99503495
     27.72000000	    -26.03960368	      0.02461535	     -3.22594478	      0.00513162	      0.59683307	      0.01749311	     90.55141415	     -6.49875797	     -5.08249093	    -98.78236719	     34.61797671	      2.63274629	      0.00000000	     94.19492821	    -10.93144036	      0.62577213	    -96.96836067	     33.00129401	      2.95734983	      0.00000000	    -27.87249496	     -0.96512556	      1.02103467
     27.73000000	    -25.94055959	     -0.08726400	     -3.18739232	      0.00580965	      0.60140110	      0.01780885	     89.82809841	     -6.42338984	     -5.23781806	    -97.97488532	     34.50655694	      2.53083560	      0.00000000	     93.49824729	    -10.81777676	      0.72591982	    -96.19215692	     32.82695186	      2.83191756	      0.00000000	    -27.81094693	     -0.87294461	      0.90225359
     27.74000000	    -25.87477858	     -0.16194448	     -3.15799844	      0.00657360	      0.60613914	      0.01816051	     89.12610726	     -6.34741154	     -5.35173153	    -97.12940963	     34.34489278	      2.50433740	      0.00000000	     92.79483656	    -10.72252943	      0.79482685	    -95.36303163	     32.60782352	      2.74384602	      0.00000000	    -27.69925563	     -0.83034709	      0.79605878
     27.75000000	    -25.70643209	     -0.28750314	     -3.15030316	      0.00726077	      0.61070793	      0.01850364	     88.34173649	     -6.24789229	     -5.51086035	    -96.32664210	     34.22997488	      2.47323047	      0.00000000	     92.05529229	    -10.65368104	      0.91465129	    -94.61580742	     32.40698433	      2.63219986	      0.00000000	    -27.55653238	     -0.71242105	      0.86006881
